<?xml version="1.0" encoding="UTF-8"?>
<svg id="Layer_1" data-name="Layer 1" xmlns="http://www.w3.org/2000/svg" viewBox="0 0 320.55 100.99">
  <defs>
    <style>
      .cls-1 {
        fill: #2d0e22;
      }

      .cls-1, .cls-2, .cls-3, .cls-4, .cls-5 {
        stroke-width: 0px;
      }

      .cls-2 {
        fill: #fff;
      }

      .cls-3 {
        fill: #5cecd8;
      }

      .cls-4 {
        fill: #2feee4;
      }

      .cls-5 {
        fill: #1a7c7c;
      }
    </style>
  </defs>
  <g>
    <g>
      <rect class="cls-2" x="237.26" y="9.23" width="2.2" height="2.2" transform="translate(62.51 171.57) rotate(-45)"/>
      <path class="cls-2" d="m223.02,10.33l1.01-.33c2.01-.65,3.59-2.23,4.25-4.25l.33-1.01h0c.83,2.55,3.11,4.35,5.79,4.55l13.74,1.03-13.74,1.03c-2.67.2-4.96,2-5.79,4.55h0s-.33-1.01-.33-1.01c-.65-2.01-2.23-3.59-4.25-4.25l-1.01-.33Z"/>
    </g>
    <g>
      <rect class="cls-2" x="81.09" y="9.23" width="2.2" height="2.2" transform="translate(147.62 -40.48) rotate(135)"/>
      <path class="cls-2" d="m97.53,10.33l-1.01.33c-2.01.65-3.59,2.23-4.25,4.25l-.33,1.01h0c-.83-2.55-3.11-4.35-5.79-4.55l-13.74-1.03,13.74-1.03c2.67-.2,4.96-2,5.79-4.55h0s.33,1.01.33,1.01c.65,2.01,2.23,3.59,4.25,4.25l1.01.33Z"/>
    </g>
  </g>
  <g>
    <path class="cls-4" d="m307.83,23.76v59.49H12.69V23.76h295.14m.57-.57H12.12v60.63h296.28V23.19h0Z"/>
    <path class="cls-1" d="m298.19,86.33H22.34c0-6.88-5.58-12.45-12.45-12.45v-40.74c6.88,0,12.45-5.58,12.45-12.45h275.85c0,6.88,5.58,12.45,12.45,12.45v40.74c-6.88,0-12.45,5.58-12.45,12.45Z"/>
    <path class="cls-5" d="m297.58,21.3c.31,6.72,5.72,12.13,12.44,12.44v39.54c-6.72.31-12.13,5.72-12.44,12.44H22.94c-.31-6.72-5.72-12.13-12.44-12.44v-39.54c6.72-.31,12.13-5.72,12.44-12.44h274.64m.6-.62H22.34c0,6.88-5.58,12.45-12.45,12.45v40.74c6.88,0,12.45,5.58,12.45,12.45h275.85c0-6.88,5.58-12.45,12.45-12.45v-40.74c-6.88,0-12.45-5.58-12.45-12.45h0Z"/>
    <g>
      <rect class="cls-5" x="309.45" y="54.84" width="1.84" height="1.84" transform="translate(51.48 235.8) rotate(-45)"/>
      <path class="cls-5" d="m310.37,42.96l.27.84c.54,1.68,1.86,3,3.54,3.54l.84.27h0c-2.13.69-3.63,2.6-3.8,4.83l-.86,11.47-.86-11.47c-.17-2.23-1.67-4.14-3.8-4.83h0s.84-.27.84-.27c1.68-.54,3-1.86,3.54-3.54l.27-.84Z"/>
    </g>
    <g>
      <rect class="cls-5" x="9.26" y="54.84" width="1.84" height="1.84" transform="translate(-36.45 23.53) rotate(-45)"/>
      <path class="cls-5" d="m10.18,42.96l.27.84c.54,1.68,1.86,3,3.54,3.54l.84.27h0c-2.13.69-3.63,2.6-3.8,4.83l-.86,11.47-.86-11.47c-.17-2.23-1.67-4.14-3.8-4.83h0s.84-.27.84-.27c1.68-.54,3-1.86,3.54-3.54l.27-.84Z"/>
    </g>
  </g>
  <g>
    <path class="cls-3" d="m270.1,29.93c1.31-4.86-2.14-9.73-7.14-10.3-2.47-.28-5-.5-5.51-1.41-.91-1.65,1.69-1.87,2.26-.37.65,1.38,1.81-.33.66-1.61-.99-1.1-5.39-1.62-6.21,2.15-.33,1.53.07,3.11,1.03,4.36.25.32.44.52.44.52,0,0-1.48,2.81.5,6.07,1.99,3.27,7.68,2.66,8.48-.29.8-2.96-2.9-4.08-5.26-2.43-.72.45-.35,1.23.56.93.93-.3,2.04-.59,2.43.49.4,1.08-2.23,3.02-3.67.68-1.43-2.35-1.73-5.27,2.01-6.49,3.38-1.11,6.03,1.58,6.76,4.11.73,2.54-.71,5.94-4.41,7.32-4.41,1.65-7.56-.78-9.05-5.48-1.48-4.69-2.17-21.64-13.16-7.6l-.22.62s5.54-3.39,9.01,2.04c3.28,5.15,3.08,13.9,11.03,13.35.43-.02.88-.08,1.36-.17.15-.03.32-.06.46-.09h.01c.71-.16,1.39-.35,2-.59.47-.18.91-.38,1.32-.6,2.32-1.26,3.7-3.14,4.27-5.22Zm-26.78-11c7.17-6.92,8.22,3.38,8.22,3.38-2.85-6.3-8.05-3.48-8.22-3.38Z"/>
    <path class="cls-3" d="m54.72,34.77c.41.22.85.42,1.32.6.61.24,1.29.43,2,.59h.01c.15.03.31.06.46.09.48.09.93.14,1.36.17,7.96.56,7.75-8.2,11.03-13.35,3.46-5.43,9.01-2.04,9.01-2.04l-.22-.62c-10.99-14.04-11.67,2.91-13.16,7.6-1.49,4.7-4.63,7.13-9.05,5.48-3.7-1.38-5.14-4.78-4.41-7.32.73-2.53,3.38-5.22,6.76-4.11,3.74,1.22,3.45,4.14,2.01,6.49-1.44,2.35-4.06.4-3.67-.68.4-1.08,1.51-.79,2.43-.49.91.3,1.28-.48.56-.93-2.36-1.64-6.06-.52-5.26,2.43.81,2.95,6.49,3.55,8.48.29,1.99-3.26.5-6.07.5-6.07,0,0,.19-.2.44-.52.95-1.24,1.36-2.83,1.03-4.36-.82-3.78-5.21-3.25-6.21-2.15-1.15,1.28,0,2.99.66,1.61.57-1.5,3.17-1.28,2.26.37-.51.91-3.04,1.13-5.51,1.41-5.01.57-8.46,5.44-7.14,10.3.57,2.09,1.95,3.97,4.27,5.22Zm14.29-12.84s1.05-10.3,8.22-3.38c-.17-.1-5.37-2.92-8.22,3.38Z"/>
  </g>
  <g>
    <path class="cls-3" d="m5.57,77.49c-1.31,4.86,2.14,9.73,7.14,10.3,2.47.28,5,.5,5.51,1.41.91,1.65-1.69,1.87-2.26.37-.65-1.38-1.81.33-.66,1.61.99,1.1,5.39,1.62,6.21-2.15.33-1.53-.07-3.11-1.03-4.36-.25-.32-.44-.52-.44-.52,0,0,1.48-2.81-.5-6.07-1.99-3.27-7.68-2.66-8.48.29-.8,2.96,2.9,4.08,5.26,2.43.72-.45.35-1.23-.56-.93-.93.3-2.04.59-2.43-.49-.4-1.08,2.23-3.02,3.67-.68,1.43,2.35,1.73,5.27-2.01,6.49-3.38,1.11-6.03-1.58-6.76-4.11-.73-2.54.71-5.94,4.41-7.32,4.41-1.65,7.56.78,9.05,5.48,1.48,4.69,2.17,21.64,13.16,7.6l.22-.62s-5.54,3.39-9.01-2.04c-3.28-5.15-3.08-13.9-11.03-13.35-.43.02-.88.08-1.36.17-.15.03-.32.06-.46.09h-.01c-.71.16-1.39.35-2,.59-.47.18-.91.38-1.32.6-2.32,1.26-3.7,3.14-4.27,5.22Zm26.78,11c-7.17,6.92-8.22-3.38-8.22-3.38,2.85,6.3,8.05,3.48,8.22,3.38Z"/>
    <path class="cls-3" d="m310.71,72.27c-.41-.22-.85-.42-1.32-.6-.61-.24-1.29-.43-2-.59h-.01c-.15-.03-.31-.06-.46-.09-.48-.09-.93-.14-1.36-.17-7.96-.56-7.75,8.2-11.03,13.35-3.46,5.43-9.01,2.04-9.01,2.04l.22.62c10.99,14.04,11.67-2.91,13.16-7.6,1.49-4.7,4.63-7.13,9.05-5.48,3.7,1.38,5.14,4.78,4.41,7.32-.73,2.53-3.38,5.22-6.76,4.11-3.74-1.22-3.45-4.14-2.01-6.49,1.44-2.35,4.06-.4,3.67.68-.4,1.08-1.51.79-2.43.49-.91-.3-1.28.48-.56.93,2.36,1.64,6.06.52,5.26-2.43-.81-2.95-6.49-3.55-8.48-.29-1.99,3.26-.5,6.07-.5,6.07,0,0-.19.2-.44.52-.95,1.24-1.36,2.83-1.03,4.36.82,3.78,5.21,3.25,6.21,2.15,1.15-1.28,0-2.99-.66-1.61-.57,1.5-3.17,1.28-2.26-.37.51-.91,3.04-1.13,5.51-1.41,5.01-.57,8.46-5.44,7.14-10.3-.57-2.09-1.95-3.97-4.27-5.22Zm-14.29,12.84s-1.05,10.3-8.22,3.38c.17.1,5.37,2.92,8.22-3.38Z"/>
  </g>
  <g>
    <path class="cls-3" d="m165.76,93.55c.77-.02,1.51-.19,2.18-.48-1.52,1.87-3.82,3.09-6.42,3.18-4.77.15-8.77-3.59-8.92-8.36-.15-4.77,3.59-8.77,8.37-8.92,2.6-.08,4.97.99,6.61,2.76-.69-.24-1.44-.36-2.21-.34-3.36.11-6,2.92-5.89,6.28.11,3.36,2.92,6,6.28,5.89Z"/>
    <g>
      <g>
        <rect class="cls-3" x="181.32" y="84.1" width="3.89" height="3.89" transform="translate(114.52 -104.39) rotate(45)"/>
        <rect class="cls-3" x="202.1" y="84.66" width="2.76" height="2.76" transform="translate(120.44 -118.68) rotate(45)"/>
        <rect class="cls-3" x="221.29" y="85.23" width="1.64" height="1.64" transform="translate(125.9 -131.85) rotate(45)"/>
      </g>
      <g>
        <rect class="cls-3" x="135.33" y="84.1" width="3.89" height="3.89" transform="translate(173.51 243.96) rotate(-135)"/>
        <rect class="cls-3" x="115.68" y="84.66" width="2.76" height="2.76" transform="translate(139 229.66) rotate(-135)"/>
        <rect class="cls-3" x="97.63" y="85.23" width="1.64" height="1.64" transform="translate(107.21 216.49) rotate(-135)"/>
      </g>
    </g>
  </g>
  <g>
    <g>
      <rect class="cls-3" x="203.62" y="20.13" width="1.84" height="1.84" transform="translate(45.02 150.8) rotate(-45)"/>
      <path class="cls-3" d="m191.75,21.05l.84-.27c1.68-.54,3-1.86,3.54-3.54l.27-.84h0c.69,2.13,2.6,3.63,4.83,3.8l11.47.86-11.47.86c-2.23.17-4.14,1.67-4.83,3.8h0s-.27-.84-.27-.84c-.54-1.68-1.86-3-3.54-3.54l-.84-.27Z"/>
    </g>
    <g>
      <rect class="cls-3" x="115.09" y="20.13" width="1.84" height="1.84" transform="translate(19.09 88.19) rotate(-45)"/>
      <path class="cls-3" d="m128.8,21.05l-.84.27c-1.68.54-3,1.86-3.54,3.54l-.27.84h0c-.69-2.13-2.6-3.63-4.83-3.8l-11.47-.86,11.47-.86c2.23-.17,4.14-1.67,4.83-3.8h0s.27.84.27.84c.54,1.68,1.86,3,3.54,3.54l.84.27Z"/>
    </g>
  </g>
</svg>