<?xml version="1.0" encoding="UTF-8"?>
<svg id="Layer_1" data-name="Layer 1" xmlns="http://www.w3.org/2000/svg" viewBox="0 0 341.89 120.34">
  <defs>
    <style>
      .cls-1 {
        fill: #2d0e22;
      }

      .cls-1, .cls-2, .cls-3, .cls-4 {
        stroke-width: 0px;
      }

      .cls-2 {
        fill: #fff;
      }

      .cls-3 {
        fill: #5cecd8;
      }

      .cls-4 {
        fill: #1a7c7c;
      }
    </style>
  </defs>
  <g>
    <rect class="cls-2" x="221.43" y="19.46" width="2.3" height="2.3" transform="translate(50.62 163.43) rotate(-45)"/>
    <path class="cls-2" d="m206.55,20.61l1.06-.34c2.11-.68,3.76-2.33,4.44-4.44l.34-1.06h0c.86,2.67,3.25,4.55,6.05,4.76l14.36,1.08-14.36,1.08c-2.8.21-5.19,2.09-6.05,4.76h0s-.34-1.06-.34-1.06c-.68-2.11-2.33-3.76-4.44-4.44l-1.06-.34Z"/>
  </g>
  <g>
    <g>
      <path class="cls-1" d="m317.9,100.4H23.99c0-6.88-5.58-12.45-12.45-12.45v-47.6c6.88,0,12.45-5.58,12.45-12.45h293.92c0,6.88,5.58,12.45,12.45,12.45v47.6c-6.88,0-12.45,5.58-12.45,12.45Z"/>
      <rect class="cls-3" x="321.09" y="61.09" width="4.07" height="4.07" transform="translate(139.28 -209.99) rotate(45)"/>
      <rect class="cls-3" x="16.42" y="61.09" width="4.07" height="4.07" transform="translate(50.04 5.44) rotate(45)"/>
      <path class="cls-4" d="m317.27,28.54c.33,6.71,5.73,12.11,12.44,12.44v46.34c-6.71.33-12.11,5.73-12.44,12.44H24.62c-.33-6.71-5.73-12.11-12.44-12.44v-46.34c6.71-.33,12.11-5.73,12.44-12.44h292.65m.63-.65H23.99c0,6.88-5.58,12.45-12.45,12.45v47.6c6.88,0,12.45,5.58,12.45,12.45h293.92c0-6.88,5.58-12.45,12.45-12.45v-47.6c-6.88,0-12.45-5.58-12.45-12.45h0Z"/>
      <path class="cls-3" d="m326.54,34.29c.92-3.39-1.49-6.79-4.99-7.19-1.72-.2-3.49-.35-3.85-.98-.63-1.15,1.18-1.31,1.58-.26.45.96,1.27-.23.46-1.12-.69-.76-3.76-1.13-4.33,1.5-.23,1.07.05,2.17.72,3.04.18.22.31.37.31.37,0,0-1.04,1.96.35,4.24,1.39,2.28,5.36,1.86,5.92-.2.56-2.06-2.02-2.85-3.67-1.7-.5.31-.25.86.39.65.65-.21,1.42-.41,1.7.35.28.76-1.56,2.11-2.56.47-1-1.64-1.21-3.68,1.4-4.53,2.36-.78,4.21,1.1,4.72,2.87.51,1.78-.5,4.14-3.08,5.11-3.08,1.15-5.28-.55-6.32-3.83-1.04-3.27-1.51-15.1-9.18-5.3l-.15.43s3.87-2.37,6.29,1.42c2.29,3.59,2.15,9.71,7.7,9.32.3-.02.62-.05.95-.12.11-.02.22-.04.32-.06h0c.5-.11.97-.24,1.4-.41.33-.13.64-.26.92-.42,1.62-.88,2.58-2.19,2.98-3.65Zm-18.69-7.68c5.01-4.83,5.74,2.36,5.74,2.36-1.99-4.4-5.62-2.43-5.74-2.36Z"/>
      <path class="cls-3" d="m323.57,89.86c-.29-.15-.59-.29-.92-.42-.43-.17-.9-.3-1.4-.41h0c-.1-.02-.22-.04-.32-.06-.33-.06-.65-.1-.95-.12-5.55-.39-5.41,5.73-7.7,9.32-2.42,3.79-6.29,1.42-6.29,1.42l.15.43c7.67,9.8,8.15-2.03,9.18-5.3,1.04-3.28,3.24-4.98,6.32-3.83,2.58.97,3.59,3.34,3.08,5.11-.51,1.77-2.36,3.65-4.72,2.87-2.61-.85-2.4-2.89-1.4-4.53,1-1.64,2.84-.28,2.56.47-.28.76-1.05.55-1.7.35-.64-.21-.9.33-.39.65,1.65,1.15,4.23.37,3.67-1.7-.56-2.06-4.53-2.48-5.92-.2-1.39,2.28-.35,4.24-.35,4.24,0,0-.13.14-.31.37-.66.87-.95,1.97-.72,3.04.57,2.64,3.64,2.27,4.33,1.5.8-.89,0-2.09-.46-1.12-.4,1.05-2.21.89-1.58-.26.35-.63,2.12-.79,3.85-.98,3.5-.4,5.9-3.8,4.99-7.19-.4-1.46-1.36-2.77-2.98-3.65Zm-9.98,8.96s-.73,7.19-5.74,2.36c.12.07,3.75,2.04,5.74-2.36Z"/>
      <path class="cls-3" d="m14.72,93.51c-.92,3.39,1.49,6.79,4.99,7.19,1.72.2,3.49.35,3.85.98.63,1.15-1.18,1.31-1.58.26-.45-.96-1.27.23-.46,1.12.69.76,3.76,1.13,4.33-1.5.23-1.07-.05-2.17-.72-3.04-.18-.22-.31-.37-.31-.37,0,0,1.04-1.96-.35-4.24-1.39-2.28-5.36-1.86-5.92.2-.56,2.06,2.02,2.85,3.67,1.7.5-.31.25-.86-.39-.65-.65.21-1.42.41-1.7-.35-.28-.76,1.56-2.11,2.56-.47,1,1.64,1.21,3.68-1.4,4.53-2.36.78-4.21-1.1-4.72-2.87-.51-1.78.5-4.14,3.08-5.11,3.08-1.15,5.28.55,6.32,3.83,1.04,3.27,1.51,15.1,9.18,5.3l.15-.43s-3.87,2.37-6.29-1.42c-2.29-3.59-2.15-9.71-7.7-9.32-.3.02-.62.05-.95.12-.11.02-.22.04-.32.06h0c-.5.11-.97.24-1.4.41-.33.13-.64.26-.92.42-1.62.88-2.58,2.19-2.98,3.65Zm18.69,7.68c-5.01,4.83-5.74-2.36-5.74-2.36,1.99,4.4,5.62,2.43,5.74,2.36Z"/>
      <path class="cls-3" d="m17.7,37.94c.29.15.59.29.92.42.43.17.9.3,1.4.41h0c.1.02.22.04.32.06.33.06.65.1.95.12,5.55.39,5.41-5.73,7.7-9.32,2.42-3.79,6.29-1.42,6.29-1.42l-.15-.43c-7.67-9.8-8.15,2.03-9.18,5.3-1.04,3.28-3.24,4.98-6.32,3.83-2.58-.97-3.59-3.34-3.08-5.11.51-1.77,2.36-3.65,4.72-2.87,2.61.85,2.4,2.89,1.4,4.53-1,1.64-2.84.28-2.56-.47.28-.76,1.05-.55,1.7-.35.64.21.9-.33.39-.65-1.65-1.15-4.23-.37-3.67,1.7.56,2.06,4.53,2.48,5.92.2,1.39-2.28.35-4.24.35-4.24,0,0,.13-.14.31-.37.66-.87.95-1.97.72-3.04-.57-2.64-3.64-2.27-4.33-1.5-.8.89,0,2.09.46,1.12.4-1.05,2.21-.89,1.58.26-.35.63-2.12.79-3.85.98-3.5.4-5.9,3.8-4.99,7.19.4,1.46,1.36,2.77,2.98,3.65Zm9.98-8.96s.73-7.19,5.74-2.36c-.12-.07-3.75-2.04-5.74,2.36Z"/>
    </g>
    <g>
      <path class="cls-3" d="m176.68,107.6c.81-.03,1.58-.2,2.28-.5-1.59,1.95-3.99,3.23-6.71,3.32-4.99.16-9.16-3.76-9.32-8.74-.16-4.99,3.76-9.16,8.74-9.32,2.72-.09,5.2,1.04,6.91,2.88-.72-.25-1.5-.38-2.31-.35-3.51.11-6.27,3.05-6.16,6.56.11,3.51,3.05,6.27,6.56,6.16Z"/>
      <g>
        <rect class="cls-3" x="192.95" y="98.07" width="4.07" height="4.07" transform="translate(127.89 -108.55) rotate(45)"/>
        <rect class="cls-3" x="214.67" y="98.66" width="2.89" height="2.89" transform="translate(134.08 -123.5) rotate(45)"/>
        <rect class="cls-3" x="234.72" y="99.25" width="1.71" height="1.71" transform="translate(139.78 -137.26) rotate(45)"/>
      </g>
      <g>
        <rect class="cls-3" x="144.87" y="97.73" width="4.07" height="4.07" transform="translate(180.25 274.18) rotate(-135)"/>
        <rect class="cls-3" x="124.33" y="98.32" width="2.89" height="2.89" transform="translate(144.17 259.24) rotate(-135)"/>
        <rect class="cls-3" x="105.46" y="98.91" width="1.71" height="1.71" transform="translate(110.94 245.48) rotate(-135)"/>
      </g>
    </g>
  </g>
</svg>
