<?xml version="1.0" encoding="UTF-8"?>
<svg id="Layer_1" data-name="Layer 1" xmlns="http://www.w3.org/2000/svg" viewBox="0 0 317.44 109.42">
  <defs>
    <style>
      .cls-1 {
        fill: #2d0e22;
      }

      .cls-1, .cls-2, .cls-3, .cls-4 {
        stroke-width: 0px;
      }

      .cls-2 {
        fill: #fff;
      }

      .cls-3 {
        fill: #5cecd8;
      }

      .cls-4 {
        fill: #1a7c7c;
      }
    </style>
  </defs>
  <g>
    <rect class="cls-2" x="155.02" y="13.51" width="2.2" height="2.2" transform="translate(35.4 114.68) rotate(-45)"/>
    <path class="cls-2" d="m140.79,14.61l1.01-.33c2.01-.65,3.59-2.23,4.25-4.25l.33-1.01h0c.83,2.55,3.11,4.35,5.79,4.55l13.74,1.03-13.74,1.03c-2.67.2-4.96,2-5.79,4.55h0s-.33-1.01-.33-1.01c-.65-2.01-2.23-3.59-4.25-4.25l-1.01-.33Z"/>
  </g>
  <g>
    <g>
      <path class="cls-1" d="m298.76,91.32H18.68c0-6.88-5.58-12.45-12.45-12.45v-44.46c6.88,0,12.45-5.58,12.45-12.45h280.09c0,6.88,5.58,12.45,12.45,12.45v44.46c-6.88,0-12.45,5.58-12.45,12.45Z"/>
      <rect class="cls-3" x="302.36" y="53.71" width="3.89" height="3.89" transform="translate(128.48 -198.87) rotate(45)"/>
      <rect class="cls-3" x="10.9" y="53.71" width="3.89" height="3.89" transform="translate(43.12 7.22) rotate(45)"/>
      <path class="cls-4" d="m298.16,22.57c.31,6.72,5.72,12.13,12.44,12.44v43.25c-6.72.31-12.13,5.72-12.44,12.44H19.28c-.31-6.72-5.72-12.13-12.44-12.44v-43.25c6.72-.31,12.13-5.72,12.44-12.44h278.88m.6-.62H18.68c0,6.88-5.58,12.45-12.45,12.45v44.46c6.88,0,12.45,5.58,12.45,12.45h280.09c0-6.88,5.58-12.45,12.45-12.45v-44.46c-6.88,0-12.45-5.58-12.45-12.45h0Z"/>
      <path class="cls-3" d="m307.57,28.07c.88-3.25-1.43-6.5-4.77-6.88-1.65-.19-3.34-.33-3.68-.94-.61-1.1,1.13-1.25,1.51-.25.44.92,1.21-.22.44-1.07-.66-.73-3.6-1.08-4.14,1.44-.22,1.02.05,2.08.68,2.91.17.21.3.35.3.35,0,0-.99,1.88.34,4.06,1.33,2.18,5.13,1.78,5.67-.19.53-1.98-1.94-2.72-3.51-1.63-.48.3-.24.82.37.62.62-.2,1.36-.39,1.62.33.26.72-1.49,2.02-2.45.45-.96-1.57-1.15-3.52,1.34-4.34,2.26-.74,4.02,1.05,4.51,2.75.49,1.7-.47,3.97-2.94,4.89-2.95,1.1-5.05-.52-6.04-3.66-.99-3.13-1.45-14.45-8.79-5.07l-.14.41s3.7-2.27,6.02,1.36c2.19,3.44,2.05,9.29,7.37,8.91.29-.02.59-.05.91-.11.1-.02.21-.04.31-.06h0c.48-.1.93-.23,1.33-.39.32-.12.61-.25.88-.4,1.55-.84,2.47-2.1,2.85-3.49Zm-17.88-7.35c4.79-4.62,5.49,2.26,5.49,2.26-1.91-4.21-5.38-2.33-5.49-2.26Z"/>
      <path class="cls-3" d="m304.72,81.23c-.28-.15-.57-.28-.88-.4-.41-.16-.86-.29-1.33-.39h0c-.1-.02-.21-.04-.31-.06-.32-.06-.62-.1-.91-.11-5.31-.37-5.18,5.48-7.37,8.91-2.31,3.63-6.02,1.36-6.02,1.36l.14.41c7.34,9.38,7.8-1.94,8.79-5.07.99-3.14,3.1-4.76,6.04-3.66,2.47.92,3.43,3.19,2.94,4.89-.49,1.69-2.26,3.49-4.51,2.75-2.5-.82-2.3-2.77-1.34-4.34.96-1.57,2.71-.27,2.45.45-.26.72-1.01.53-1.62.33-.61-.2-.86.32-.37.62,1.57,1.1,4.04.35,3.51-1.63-.54-1.97-4.33-2.37-5.67-.19-1.33,2.18-.34,4.06-.34,4.06,0,0-.13.14-.3.35-.64.83-.91,1.89-.68,2.91.55,2.52,3.48,2.17,4.14,1.44.77-.85,0-2-.44-1.07-.38,1-2.12.86-1.51-.25.34-.61,2.03-.75,3.68-.94,3.34-.38,5.65-3.63,4.77-6.88-.38-1.39-1.3-2.65-2.85-3.49Zm-9.54,8.58s-.7,6.88-5.49,2.26c.11.07,3.59,1.95,5.49-2.26Z"/>
      <path class="cls-3" d="m9.27,84.72c-.88,3.25,1.43,6.5,4.77,6.88,1.65.19,3.34.33,3.68.94.61,1.1-1.13,1.25-1.51.25-.44-.92-1.21.22-.44,1.07.66.73,3.6,1.08,4.14-1.44.22-1.02-.05-2.08-.68-2.91-.17-.21-.3-.35-.3-.35,0,0,.99-1.88-.34-4.06-1.33-2.18-5.13-1.78-5.67.19-.53,1.98,1.94,2.72,3.51,1.63.48-.3.24-.82-.37-.62-.62.2-1.36.39-1.62-.33-.26-.72,1.49-2.02,2.45-.45.96,1.57,1.15,3.52-1.34,4.34-2.26.74-4.02-1.05-4.51-2.75-.49-1.7.47-3.97,2.94-4.89,2.95-1.1,5.05.52,6.04,3.66.99,3.13,1.45,14.45,8.79,5.07l.14-.41s-3.7,2.27-6.02-1.36c-2.19-3.44-2.05-9.29-7.37-8.91-.29.02-.59.05-.91.11-.1.02-.21.04-.31.06h0c-.48.1-.93.23-1.33.39-.32.12-.61.25-.88.4-1.55.84-2.47,2.1-2.85,3.49Zm17.88,7.35c-4.79,4.62-5.49-2.26-5.49-2.26,1.91,4.21,5.38,2.33,5.49,2.26Z"/>
      <path class="cls-3" d="m12.12,31.56c.28.15.57.28.88.4.41.16.86.29,1.33.39h0c.1.02.21.04.31.06.32.06.62.1.91.11,5.31.37,5.18-5.48,7.37-8.91,2.31-3.63,6.02-1.36,6.02-1.36l-.14-.41c-7.34-9.38-7.8,1.94-8.79,5.07-.99,3.14-3.1,4.76-6.04,3.66-2.47-.92-3.43-3.19-2.94-4.89.49-1.69,2.26-3.49,4.51-2.75,2.5.82,2.3,2.77,1.34,4.34-.96,1.57-2.71.27-2.45-.45.26-.72,1.01-.53,1.62-.33.61.2.86-.32.37-.62-1.57-1.1-4.04-.35-3.51,1.63.54,1.97,4.33,2.37,5.67.19,1.33-2.18.34-4.06.34-4.06,0,0,.13-.14.3-.35.64-.83.91-1.89.68-2.91-.55-2.52-3.48-2.17-4.14-1.44-.77.85,0,2,.44,1.07.38-1,2.12-.86,1.51.25-.34.61-2.03.75-3.68.94-3.34.38-5.65,3.63-4.77,6.88.38,1.39,1.3,2.65,2.85,3.49Zm9.54-8.58s.7-6.88,5.49-2.26c-.11-.07-3.59-1.95-5.49,2.26Z"/>
    </g>
    <g>
      <path class="cls-3" d="m164.21,98.2c.77-.02,1.51-.19,2.18-.48-1.52,1.87-3.82,3.09-6.42,3.18-4.77.15-8.77-3.59-8.92-8.36-.15-4.77,3.59-8.77,8.37-8.92,2.6-.08,4.97.99,6.61,2.76-.69-.24-1.44-.36-2.21-.34-3.36.11-6,2.92-5.89,6.28.11,3.36,2.92,6,6.28,5.89Z"/>
      <g>
        <rect class="cls-3" x="179.77" y="89.08" width="3.89" height="3.89" transform="translate(117.59 -101.83) rotate(45)"/>
        <rect class="cls-3" x="200.55" y="89.65" width="2.76" height="2.76" transform="translate(123.51 -116.13) rotate(45)"/>
        <rect class="cls-3" x="219.73" y="90.21" width="1.64" height="1.64" transform="translate(128.96 -129.29) rotate(45)"/>
      </g>
      <g>
        <rect class="cls-3" x="133.78" y="88.76" width="3.89" height="3.89" transform="translate(167.56 250.81) rotate(-135)"/>
        <rect class="cls-3" x="114.13" y="89.32" width="2.76" height="2.76" transform="translate(133.05 236.52) rotate(-135)"/>
        <rect class="cls-3" x="96.07" y="89.88" width="1.64" height="1.64" transform="translate(101.26 223.35) rotate(-135)"/>
      </g>
    </g>
  </g>
</svg>
